<svg xmlns="http://www.w3.org/2000/svg" width="16" height="16" viewBox="0 0 16 16" shape-rendering="crispEdges">
  <title>Anime magnet mascot icon</title>
  <rect width="16" height="16" fill="none"/>

  <!-- halo -->
  <path d="M5 1h6v1h2v1h-2V2H5v1H3V2h2z" fill="#52b8ff"/>
  <path d="M5 2h6v1H5z" fill="#dff6ff"/>

  <!-- hair silhouette -->
  <path d="M4 4h1V3h6v1h1v1h1v6h-1v2h-1v1H5v-1H4v-2H3V5h1z" fill="#263255"/>
  <path d="M5 3h6v1h1v7h-1v2H5v-2H4V5h1z" fill="#f1f8ff"/>

  <!-- blue shadows -->
  <path d="M4 6h1v5H4zM11 5h1v6h-1zM5 12h2v1H5zM9 12h2v1H9z" fill="#9fb8e8"/>
  <path d="M6 4h1v4H6zM9 4h1v4H9z" fill="#c7d8ff"/>

  <!-- hair accessory -->
  <path d="M12 4h2v1h1v3h-1v1h-2V8h-1V5h1z" fill="#20294a"/>
  <path d="M13 5h1v1h1v1h-1v1h-1V7h-1V6h1z" fill="#35b9ff"/>

  <!-- face -->
  <path d="M5 8h6v3h-1v1H6v-1H5z" fill="#ffe6d2"/>
  <path d="M5 10h1v1H5zM10 10h1v1h-1z" fill="#ffb3b9"/>

  <!-- eyes -->
  <path d="M6 8h2v2H6zM9 8h2v2H9z" fill="#18366f"/>
  <path d="M7 8h1v1H7zM10 8h1v1h-1z" fill="#54c7ff"/>
  <path d="M7 9h1v1H7zM10 9h1v1h-1z" fill="#ffffff"/>

  <!-- mouth -->
  <path d="M7 11h2v1H7z" fill="#ec6f8f"/>

  <!-- collar -->
  <path d="M6 13h4v1h1v1H5v-1h1z" fill="#25345e"/>
  <path d="M7 13h2v1H7z" fill="#79d7ff"/>
</svg>
